<?xml version="1.0" encoding="UTF-8" standalone="no"?>
<!-- Created with Inkscape (http://www.inkscape.org/) -->

<svg
   width="350"
   height="200"
   viewBox="0 0 92.604167 52.916665"
   version="1.1"
   id="svg5"
   xmlns="http://www.w3.org/2000/svg"
   xmlns:svg="http://www.w3.org/2000/svg">
  <defs
     id="defs2">
    <filter
       style="color-interpolation-filters:sRGB"
       id="filter478"
       x="-0.072516464"
       y="-0.25371337"
       width="1.1450329"
       height="1.5074267">
      <feFlood
         flood-opacity="0.498039"
         flood-color="rgb(0,0,0)"
         result="flood"
         id="feFlood468" />
      <feComposite
         in="flood"
         in2="SourceGraphic"
         operator="in"
         result="composite1"
         id="feComposite470" />
      <feGaussianBlur
         in="composite1"
         stdDeviation="10.2639"
         result="blur"
         id="feGaussianBlur472" />
      <feOffset
         dx="0"
         dy="0"
         result="offset"
         id="feOffset474" />
      <feComposite
         in="SourceGraphic"
         in2="offset"
         operator="over"
         result="composite2"
         id="feComposite476" />
    </filter>
  </defs>
  <g
     id="layer1"
     transform="translate(-125.15514,-15.724576)">
    <g
       id="g6684"
       transform="matrix(0.24542227,0,0,0.24247428,70.901104,-143.718)"
       style="stroke-width:1.08461">
      <g
         id="g2406"
         style="stroke-width:1.13053"
         transform="matrix(0.95938529,0,0,0.95938529,-15.383967,7.3013968)">
        <path
           d="m 437.629,790.52301 -8.379,-0.534 -0.54001,8.34497 8.375,0.53803 z"
           style="fill:#424242;fill-opacity:1;fill-rule:nonzero;stroke:none;stroke-width:1.13053"
           id="path6686" />
        <path
           d="m 476.40399,790.31 -6.56299,5.216 5.23499,6.539 6.55801,-5.216 z"
           style="fill:#424242;fill-opacity:1;fill-rule:nonzero;stroke:none;stroke-width:1.13053"
           id="path6690" />
        <path
           d="m 451.48901,784.57001 -2.86401,7.86401 7.89099,2.849 2.86401,-7.86401 z"
           style="fill:#424242;fill-opacity:1;fill-rule:nonzero;stroke:none;stroke-width:1.13053"
           id="path6694" />
        <path
           d="m 409.55701,780.883 -1.133,8.28503 8.31799,1.13397 1.133,-8.28497 z"
           style="fill:#424242;fill-opacity:1;fill-rule:nonzero;stroke:none;stroke-width:1.13053"
           id="path6696" />
        <path
           d="m 435.33499,755.10303 -6.591,5.18396 5.203,6.56103 6.59,-5.18402 z"
           style="fill:#424242;fill-opacity:1;fill-rule:nonzero;stroke:none;stroke-width:1.13053"
           id="path6698" />
        <path
           d="m 481.27802,757.28198 -7.99903,-2.54095 -2.55099,7.96899 7.99899,2.54199 z"
           style="fill:#424242;fill-opacity:1;fill-rule:nonzero;stroke:none;stroke-width:1.13053"
           id="path6702" />
        <path
           d="m 455.34299,745.98401 -5.25199,6.52301 6.547,5.23798 5.25201,-6.52302 z"
           style="fill:#424242;fill-opacity:1;fill-rule:nonzero;stroke:none;stroke-width:1.13053"
           id="path6704" />
        <path
           d="m 415.13699,743.29498 -5.20199,6.56201 6.58499,5.18299 5.20199,-6.56098 z"
           style="fill:#424242;fill-opacity:1;fill-rule:nonzero;stroke:none;stroke-width:1.13053"
           id="path6708" />
        <path
           d="m 436.815,828.48798 -7.99701,-2.53797 -2.54699,7.96698 7.99701,2.53803 z"
           style="fill:#424242;fill-opacity:1;fill-rule:nonzero;stroke:none;stroke-width:1.13053"
           id="path6710" />
        <path
           d="m 472.672,827.12097 -2.168,8.078 8.112,2.15601 2.164,-8.08197 z"
           style="fill:#424242;fill-opacity:1;fill-rule:nonzero;stroke:none;stroke-width:1.13053"
           id="path6714" />
        <path
           d="m 453.755,817.60199 -6.984,4.63702 4.65399,6.95899 6.98401,-4.63703 z"
           style="fill:#424242;fill-opacity:1;fill-rule:nonzero;stroke:none;stroke-width:1.13053"
           id="path6716" />
        <path
           d="m 406.11301,820.58502 2.263,8.05597 8.07998,-2.25897 -2.263,-8.05499 z"
           style="fill:#424242;fill-opacity:1;fill-rule:nonzero;stroke:none;stroke-width:1.13053"
           id="path6720" />
        <path
           d="m 546.41787,839.461 -12.57605,-11.61603 -13.62298,12.52905 -13.75501,-12.52905 -10.086,9.26605 -7.20495,-5.742 17.29095,-15.79303 13.75501,12.39899 13.62298,-12.529 12.57605,11.61603 V 802.263 l -12.57605,-11.61603 -13.62298,12.40003 -13.75501,-12.40003 -10.086,9.13703 -7.20495,-5.74298 17.29095,-15.79303 13.75501,12.53003 13.62298,-12.53003 12.57605,11.61602 v -24.92804 l -12.57605,-11.61596 -13.62298,12.52899 -13.75501,-12.52899 -10.086,9.13598 -7.20495,-5.74298 17.29095,-15.79199 13.75501,12.52899 13.62298,-12.52899 12.57605,11.61597 1.30931,2.89653 0.17188,82.95781 z"
           style="fill:#424242;fill-opacity:1;fill-rule:nonzero;stroke:none;stroke-width:1.13053"
           id="path6728" />
        <path
           d="m 342.30301,828.46301 12.57599,11.61597 13.62301,-12.52899 13.75498,12.52899 17.29101,-15.79199 -7.20501,-5.74298 -10.086,9.13598 L 368.50201,815.151 354.879,827.67999 342.30301,816.06403 v -24.92804 l 12.57599,11.61602 13.62301,-12.53003 13.75498,12.53003 17.29101,-15.79303 -7.20501,-5.74298 -10.086,9.13703 L 368.50201,777.953 354.879,790.35303 342.30301,778.737 v -24.79901 l 12.57599,11.61603 13.62301,-12.529 13.75498,12.39899 17.29101,-15.79303 -7.20501,-5.742 -10.086,9.26605 -13.75498,-12.52905 -13.62301,12.52905 -12.57599,-11.61603 -1.98522,2.27163 0.53617,82.946 z"
           style="fill:#424242;fill-opacity:1;fill-rule:nonzero;stroke:none;stroke-width:1.13053"
           id="path6722" />
      </g>
      <path
         id="path2727"
         style="fill:#ffffff;fill-opacity:1;stroke:none;stroke-width:12.8185;stroke-dasharray:12.8185, 25.6371;filter:url(#filter478)"
         d="m 528.31725,838.47702 h 30.3045 l 29.90748,-29.90745 V 742.1192 h -60.11589 z m -219.26939,-97.0913 h -30.30451 l -29.90747,29.90745 v 66.45037 h 60.11588 z"
         transform="matrix(0.95938529,0,0,0.95938529,9.1059201,7.9379778)" />
      <path
         d="m 243.65007,809.95962 c 0,1.75282 0.62839,3.2552 1.88519,4.50719 1.25678,1.25199 2.76493,1.87849 4.52446,1.87849 h 50.26891 v 9.39142 c 0,1.83626 0.67062,3.42214 2.01088,4.75757 1.2568,1.25199 2.80716,1.87849 4.65013,1.87849 1.84297,0 3.43555,-0.6265 4.77581,-1.87849 1.34027,-1.33543 2.01088,-2.92131 2.01088,-4.75757 v -18.61784 -90.04502 -11.41958 c 0,-1.83626 -0.67061,-3.38085 -2.01088,-4.63285 -1.34026,-1.33549 -2.93284,-2.00321 -4.77581,-2.00321 -1.84297,0 -3.39333,0.66772 -4.65013,2.00321 -1.34026,1.252 -2.01088,2.79659 -2.01088,4.63285 v 9.01631 h -20.48479 c -1.75952,0 -3.68596,0.45862 -5.78031,1.37672 -2.17877,0.83467 -3.89605,1.87849 -5.15286,3.13048 l -20.73614,20.66033 c -1.17332,1.25298 -2.22001,2.96359 -3.14198,5.13468 -0.92197,2.08665 -1.38248,4.00636 -1.38248,5.75919 z m 8.54619,-2.12887 v -50.83781 h 27.64758 c 1.75951,0 3.26765,-0.58428 4.52445,-1.75283 1.25681,-1.25199 1.88521,-2.75437 1.88521,-4.50812 v -27.54685 h 14.07513 v 84.64561 z m 0.50274,-59.2267 c 0.25038,-0.58521 0.5027,-1.12727 0.75405,-1.6281 0.25041,-0.50078 0.50273,-0.87688 0.75409,-1.12726 l 20.86182,-20.78606 c 0.16695,-0.16689 0.50177,-0.37511 1.00448,-0.62549 0.50274,-0.3339 1.04766,-0.58428 1.63383,-0.75122 v 24.91813 z"
         style="fill:#0087ff;fill-opacity:1;fill-rule:nonzero;stroke:none;stroke-width:1.08461"
         id="path6724" />
      <path
         d="m 307.05297,728.97213 c 1.29227,0 2.33227,1.29708 2.33227,2.90791 v 92.63824 c 0,1.60989 -1.04,2.90697 -2.33227,2.90697 -1.29325,0 -2.33323,-1.29708 -2.33323,-2.90697 v -92.63824 c 0,-1.61083 1.03998,-2.90791 2.33323,-2.90791 z m 2.5558,-8.72558 c 0,1.4074 -1.14454,2.54714 -2.5558,2.54714 -0.67829,0 -1.32876,-0.2686 -1.80749,-0.74542 -0.47969,-0.47776 -0.74928,-1.12633 -0.74928,-1.80172 0,-0.67545 0.26959,-1.32301 0.74928,-1.80078 0.47873,-0.47682 1.1292,-0.74542 1.80749,-0.74542 1.41126,0 2.5558,1.13974 2.5558,2.5462 z m 0,-6.55455 c 0,1.40647 -1.14454,2.5462 -2.5558,2.5462 -0.67829,0 -1.32876,-0.26766 -1.80749,-0.74541 -0.47969,-0.47777 -0.74928,-1.12534 -0.74928,-1.80079 0,-0.67539 0.26959,-1.32295 0.74928,-1.80072 0.47873,-0.47782 1.1292,-0.74642 1.80749,-0.74642 1.41126,0 2.5558,1.14068 2.5558,2.54714 z m 0,-6.55548 c 0,1.40646 -1.14454,2.54719 -2.5558,2.54719 -0.67829,0 -1.32876,-0.26865 -1.80749,-0.74641 -0.47969,-0.47683 -0.74928,-1.12533 -0.74928,-1.80078 0,-0.67539 0.26959,-1.32296 0.74928,-1.80073 0.47873,-0.47781 1.1292,-0.74548 1.80749,-0.74548 1.41126,0 2.5558,1.13974 2.5558,2.54621 z"
         style="fill:#ffffff;fill-opacity:1;fill-rule:nonzero;stroke:none;stroke-width:1.08461"
         id="path6726" />
      <path
         d="m 578.20772,721.43138 c 0,-1.75282 -0.62843,-3.2552 -1.88522,-4.50719 -1.25679,-1.25199 -2.7649,-1.87849 -4.52446,-1.87849 h -50.26888 v -9.39142 c 0,-1.83626 -0.6706,-3.42214 -2.01089,-4.75757 -1.25679,-1.25199 -2.80713,-1.87849 -4.65013,-1.87849 -1.843,0 -3.43555,0.6265 -4.77584,1.87849 -1.34024,1.33543 -2.01082,2.92131 -2.01082,4.75757 v 18.61784 90.04502 11.41958 c 0,1.83626 0.67058,3.38085 2.01082,4.63285 1.34029,1.33549 2.93284,2.00321 4.77584,2.00321 1.843,0 3.39334,-0.66772 4.65013,-2.00321 1.34029,-1.252 2.01089,-2.79659 2.01089,-4.63285 v -9.01631 h 20.48478 c 1.75949,0 3.686,-0.45862 5.78032,-1.37672 2.17876,-0.83467 3.89604,-1.87849 5.15283,-3.13048 l 20.73617,-20.66033 c 1.17335,-1.25299 2.22004,-2.96359 3.142,-5.13468 0.92197,-2.08665 1.38246,-4.00636 1.38246,-5.75919 z m -8.54622,2.12887 v 50.83781 h -27.64756 c -1.7595,0 -3.26768,0.58428 -4.52447,1.75283 -1.25679,1.25199 -1.88515,2.75437 -1.88515,4.50812 v 27.54685 h -14.07516 v -84.64561 z m -0.50271,59.2267 c -0.25038,0.58521 -0.5027,1.12727 -0.75409,1.62809 -0.25038,0.50078 -0.5027,0.87689 -0.75409,1.12727 l -20.86182,20.78606 c -0.16688,0.16689 -0.50171,0.37511 -1.00448,0.62549 -0.5027,0.3339 -1.04762,0.58428 -1.63383,0.75122 v -24.91813 z"
         style="fill:#0087ff;fill-opacity:1;fill-rule:nonzero;stroke:none;stroke-width:1.08461"
         id="path6730" />
      <path
         d="m 514.80484,802.41887 c -1.29233,0 -2.33229,-1.29708 -2.33229,-2.90791 v -92.63824 c 0,-1.60989 1.03996,-2.90697 2.33229,-2.90697 1.29323,0 2.33318,1.29708 2.33318,2.90697 v 92.63824 c 0,1.61083 -1.03995,2.90791 -2.33318,2.90791 z m -2.5558,8.72558 c 0,-1.4074 1.14455,-2.54714 2.5558,-2.54714 0.67827,0 1.3287,0.2686 1.80747,0.74542 0.47969,0.47776 0.74928,1.12633 0.74928,1.80172 0,0.67545 -0.26959,1.32301 -0.74928,1.80078 -0.47877,0.47682 -1.1292,0.74542 -1.80747,0.74542 -1.41125,0 -2.5558,-1.13974 -2.5558,-2.5462 z m 0,6.55455 c 0,-1.40647 1.14455,-2.5462 2.5558,-2.5462 0.67827,0 1.3287,0.26766 1.80747,0.74541 0.47969,0.47777 0.74928,1.12534 0.74928,1.80079 0,0.67539 -0.26959,1.32295 -0.74928,1.80072 -0.47877,0.47782 -1.1292,0.74642 -1.80747,0.74642 -1.41125,0 -2.5558,-1.14068 -2.5558,-2.54714 z m 0,6.55548 c 0,-1.40646 1.14455,-2.54719 2.5558,-2.54719 0.67827,0 1.3287,0.26865 1.80747,0.74641 0.47969,0.47683 0.74928,1.12533 0.74928,1.80078 0,0.67539 -0.26959,1.32296 -0.74928,1.80073 -0.47877,0.47781 -1.1292,0.74548 -1.80747,0.74548 -1.41125,0 -2.5558,-1.13974 -2.5558,-2.54621 z"
         style="fill:#ffffff;fill-opacity:1;fill-rule:nonzero;stroke:none;stroke-width:1.08461"
         id="path6732" />
    </g>
  </g>
</svg>
