<?xml version="1.0" encoding="UTF-8" standalone="no"?>
<!-- Created with Inkscape (http://www.inkscape.org/) -->

<svg
   width="350"
   height="350"
   viewBox="0 0 92.604166 92.604167"
   version="1.1"
   id="svg836"
   inkscape:version="1.2.2 (1:1.2.2+202212051552+b0a8486541)"
   sodipodi:docname="full_suite.svg"
   xmlns:inkscape="http://www.inkscape.org/namespaces/inkscape"
   xmlns:sodipodi="http://sodipodi.sourceforge.net/DTD/sodipodi-0.dtd"
   xmlns="http://www.w3.org/2000/svg"
   xmlns:svg="http://www.w3.org/2000/svg">
  <sodipodi:namedview
     id="namedview838"
     pagecolor="#ffffff"
     bordercolor="#000000"
     borderopacity="0.25"
     inkscape:showpageshadow="2"
     inkscape:pageopacity="0.0"
     inkscape:pagecheckerboard="0"
     inkscape:deskcolor="#d1d1d1"
     inkscape:document-units="px"
     showgrid="false"
     inkscape:zoom="0.89085297"
     inkscape:cx="236.85165"
     inkscape:cy="561.8211"
     inkscape:window-width="2472"
     inkscape:window-height="1368"
     inkscape:window-x="2000"
     inkscape:window-y="64"
     inkscape:window-maximized="0"
     inkscape:current-layer="layer1"
     showguides="false"
     inkscape:lockguides="false" />
  <defs
     id="defs833">
    <filter
       style="color-interpolation-filters:sRGB"
       inkscape:label="Drop Shadow"
       id="filter1690"
       x="-0.29460421"
       y="-0.25162926"
       width="1.5892084"
       height="1.5032585">
      <feFlood
         flood-opacity="0.4"
         flood-color="rgb(0,0,0)"
         result="flood"
         id="feFlood1680" />
      <feComposite
         in="flood"
         in2="SourceGraphic"
         operator="in"
         result="composite1"
         id="feComposite1682" />
      <feGaussianBlur
         in="composite1"
         stdDeviation="28.1237"
         result="blur"
         id="feGaussianBlur1684" />
      <feOffset
         dx="0"
         dy="0"
         result="offset"
         id="feOffset1686" />
      <feComposite
         in="SourceGraphic"
         in2="offset"
         operator="over"
         result="composite2"
         id="feComposite1688" />
    </filter>
    <filter
       style="color-interpolation-filters:sRGB"
       inkscape:label="Drop Shadow"
       id="filter1702"
       x="-0.29460421"
       y="-0.25162926"
       width="1.5892084"
       height="1.5032585">
      <feFlood
         flood-opacity="0.4"
         flood-color="rgb(0,0,0)"
         result="flood"
         id="feFlood1692" />
      <feComposite
         in="flood"
         in2="SourceGraphic"
         operator="in"
         result="composite1"
         id="feComposite1694" />
      <feGaussianBlur
         in="composite1"
         stdDeviation="28.1237"
         result="blur"
         id="feGaussianBlur1696" />
      <feOffset
         dx="0"
         dy="0"
         result="offset"
         id="feOffset1698" />
      <feComposite
         in="SourceGraphic"
         in2="offset"
         operator="over"
         result="composite2"
         id="feComposite1700" />
    </filter>
    <filter
       style="color-interpolation-filters:sRGB"
       inkscape:label="Drop Shadow"
       id="filter1714"
       x="-0.29460418"
       y="-0.25162926"
       width="1.5892084"
       height="1.5032585">
      <feFlood
         flood-opacity="0.4"
         flood-color="rgb(0,0,0)"
         result="flood"
         id="feFlood1704" />
      <feComposite
         in="flood"
         in2="SourceGraphic"
         operator="in"
         result="composite1"
         id="feComposite1706" />
      <feGaussianBlur
         in="composite1"
         stdDeviation="28.1237"
         result="blur"
         id="feGaussianBlur1708" />
      <feOffset
         dx="0"
         dy="0"
         result="offset"
         id="feOffset1710" />
      <feComposite
         in="SourceGraphic"
         in2="offset"
         operator="over"
         result="composite2"
         id="feComposite1712" />
    </filter>
    <filter
       style="color-interpolation-filters:sRGB"
       inkscape:label="Drop Shadow"
       id="filter1726"
       x="-0.29460421"
       y="-0.25162926"
       width="1.5892084"
       height="1.5032585">
      <feFlood
         flood-opacity="0.4"
         flood-color="rgb(0,0,0)"
         result="flood"
         id="feFlood1716" />
      <feComposite
         in="flood"
         in2="SourceGraphic"
         operator="in"
         result="composite1"
         id="feComposite1718" />
      <feGaussianBlur
         in="composite1"
         stdDeviation="28.1237"
         result="blur"
         id="feGaussianBlur1720" />
      <feOffset
         dx="0"
         dy="0"
         result="offset"
         id="feOffset1722" />
      <feComposite
         in="SourceGraphic"
         in2="offset"
         operator="over"
         result="composite2"
         id="feComposite1724" />
    </filter>
    <filter
       style="color-interpolation-filters:sRGB"
       inkscape:label="Drop Shadow"
       id="filter1738"
       x="-0.29460421"
       y="-0.25162926"
       width="1.5892084"
       height="1.5032585">
      <feFlood
         flood-opacity="0.4"
         flood-color="rgb(0,0,0)"
         result="flood"
         id="feFlood1728" />
      <feComposite
         in="flood"
         in2="SourceGraphic"
         operator="in"
         result="composite1"
         id="feComposite1730" />
      <feGaussianBlur
         in="composite1"
         stdDeviation="28.1237"
         result="blur"
         id="feGaussianBlur1732" />
      <feOffset
         dx="0"
         dy="0"
         result="offset"
         id="feOffset1734" />
      <feComposite
         in="SourceGraphic"
         in2="offset"
         operator="over"
         result="composite2"
         id="feComposite1736" />
    </filter>
    <filter
       style="color-interpolation-filters:sRGB"
       inkscape:label="Drop Shadow"
       id="filter1750"
       x="-0.29460421"
       y="-0.25162926"
       width="1.5892084"
       height="1.5032585">
      <feFlood
         flood-opacity="0.4"
         flood-color="rgb(0,0,0)"
         result="flood"
         id="feFlood1740" />
      <feComposite
         in="flood"
         in2="SourceGraphic"
         operator="in"
         result="composite1"
         id="feComposite1742" />
      <feGaussianBlur
         in="composite1"
         stdDeviation="28.1237"
         result="blur"
         id="feGaussianBlur1744" />
      <feOffset
         dx="0"
         dy="0"
         result="offset"
         id="feOffset1746" />
      <feComposite
         in="SourceGraphic"
         in2="offset"
         operator="over"
         result="composite2"
         id="feComposite1748" />
    </filter>
  </defs>
  <g
     inkscape:label="Layer 1"
     inkscape:groupmode="layer"
     id="layer1">
    <g
       id="g7550"
       inkscape:label="icons"
       transform="matrix(0.08466666,0,0,0.08466666,-5.8304646,-87.405639)">
      <path
         style="fill:#ffffff;fill-opacity:1;stroke:none;stroke-width:35.4331;stroke-dasharray:35.4331, 70.8663;filter:url(#filter1750)"
         d="m 499.54045,1178.2593 h 160.78054 l 68.32982,68.3298 v 199.9096 H 499.64604 Z"
         id="path2054" />
      <path
         d="m 503.78566,1165.3512 q -6.76431,0 -11.46991,4.6876 -4.41151,4.3945 -4.41151,11.1328 v 260.1565 q 0,6.7382 4.41151,11.1329 4.7056,4.6874 11.46991,4.6874 h 219.39892 q 6.4702,0 11.17581,-4.6874 4.7056,-4.3947 4.7056,-11.1329 v -187.5002 q 0,-6.4453 -3.5292,-14.0625 -3.2351,-7.9102 -7.64661,-12.5976 L 676.7167,1176.484 q -4.4115,-4.3945 -12.35221,-7.6171 -7.94071,-3.5157 -14.41092,-3.5157 z m 4.99971,20.8009 h 125.58088 v 67.6758 q 0,6.7383 4.4115,11.4258 4.70561,4.3945 11.17582,4.3945 h 67.9372 v 166.6995 h -209.1054 z m 146.46201,1.4648 q 2.0587,0.5859 3.8233,1.7579 2.0587,0.8789 2.941,1.7578 l 51.17348,50.9765 q 0.8823,0.8789 1.7646,2.9297 0.8823,1.7579 1.7646,3.8086 h -61.46698 z m -39.70356,101.3673 q -3.8233,-0.293 -7.64661,0.293 -3.8233,0.2929 -7.94071,0.8789 -4.70561,1.1719 -9.41121,2.9297 -4.41151,1.4648 -8.82302,3.5156 -4.4115,2.3437 -8.23481,5.2735 -3.8233,2.9296 -7.35251,6.4452 -3.23511,3.2227 -6.17611,7.3243 -2.941,3.8085 -5.2938,7.9101 -2.35281,4.3946 -4.11741,9.0821 -1.4705,4.3945 -2.35281,9.082 -1.7646,9.0821 -1.4705,17.5782 0.5882,8.2031 3.23511,16.1133 2.64691,7.6172 6.47021,14.3554 4.1174,6.4454 9.41121,12.0117 5.29381,5.2736 11.17581,9.3751 5.88202,4.1015 12.64632,6.7383 6.76431,2.6367 13.23452,3.5156 6.47021,0.8789 12.64632,0 4.11741,-0.5859 6.76431,-2.6367 2.941,-2.3438 4.70561,-6.1524 1.4705,-4.1016 1.4705,-7.6172 0,-3.8085 -1.76461,-7.3242 -2.3528,-4.3946 -2.3528,-8.7891 0.2941,-4.3945 2.94101,-8.4961 2.6469,-4.1015 6.4702,-6.1523 3.82332,-2.3437 8.82302,-2.3437 h 20.58703 q 3.5292,0 6.4702,-1.172 3.23511,-1.1718 5.58791,-3.5156 2.35281,-2.6367 3.52921,-5.5663 1.4705,-3.2227 1.4705,-6.7383 0,-7.6172 -1.7646,-14.6485 -1.4705,-7.3243 -4.99971,-13.7695 -3.2351,-6.7383 -7.64661,-12.0117 -4.4115,-5.5665 -9.99941,-10.254 -5.29381,-4.3946 -11.76402,-7.6172 -6.17611,-3.5156 -13.52861,-5.5664 -3.52921,-0.8789 -7.35252,-1.4649 -3.8233,-0.5859 -7.64661,-0.5859 z m -2.05871,16.6992 q 1.76461,0 3.23511,0.586 1.4705,0.5859 2.64691,1.7578 1.17639,1.1718 1.7646,2.6367 0.5882,1.4649 0.5882,3.2227 0,1.7578 -0.5882,3.2227 -0.58821,1.4647 -1.7646,2.6367 -1.17641,1.1718 -2.64691,1.7578 -1.4705,0.5859 -3.23511,0.5859 -1.76459,0 -3.23509,-0.5859 -1.47051,-0.586 -2.64691,-1.7578 -1.17641,-1.172 -1.76461,-2.6367 -0.58819,-1.4649 -0.58819,-3.2227 0,-1.7578 0.58819,-3.2227 0.5882,-1.4649 1.76461,-2.6367 1.1764,-1.1719 2.64691,-1.7578 1.4705,-0.586 3.23509,-0.586 z m -33.23334,16.4063 q 1.76461,0 3.23511,0.5859 1.4705,0.586 2.6469,2.0508 1.1764,1.1719 1.7646,2.6368 0.58821,1.4648 0.58821,3.2226 0,1.7578 -0.58821,3.2227 -0.5882,1.4648 -1.7646,2.6367 -1.1764,1.1719 -2.6469,1.7578 -1.4705,0.5859 -3.23511,0.5859 -1.76461,0 -3.5292,-0.5859 -1.47051,-0.5859 -2.64691,-1.7578 -1.17639,-1.1719 -1.7646,-2.6367 -0.5882,-1.4649 -0.5882,-3.2227 0,-1.7578 0.5882,-3.2226 0.58821,-1.4649 1.7646,-2.6368 1.1764,-1.4648 2.64691,-2.0508 1.76459,-0.5859 3.5292,-0.5859 z m 66.4667,0 q 1.7646,0 3.2351,0.5859 1.4705,0.586 2.6469,2.0508 1.4705,1.1719 2.05871,2.6368 0.5882,1.4648 0.5882,3.2226 0,1.7578 -0.5882,3.2227 -0.58821,1.4648 -2.05871,2.6367 -1.1764,1.1719 -2.6469,1.7578 -1.4705,0.5859 -3.2351,0.5859 -1.76461,0 -3.23511,-0.5859 -1.4705,-0.5859 -2.64691,-1.7578 -1.17639,-1.1719 -1.76459,-2.6367 -0.58821,-1.4649 -0.58821,-3.2227 0,-1.7578 0.58821,-3.2226 0.5882,-1.4649 1.76459,-2.6368 1.17641,-1.4648 2.64691,-2.0508 1.4705,-0.5859 3.23511,-0.5859 z m -74.99561,33.3984 q 1.7646,0 3.2351,0.586 1.47051,0.586 2.6469,1.7578 1.17641,1.1718 1.76461,2.6367 0.8823,1.4649 0.8823,3.2227 0,1.7578 -0.8823,3.2227 -0.5882,1.4648 -1.76461,2.6367 -1.17639,1.1718 -2.6469,1.7578 -1.4705,0.586 -3.2351,0.586 -1.76461,0 -3.23511,-0.586 -1.4705,-0.586 -2.6469,-1.7578 -1.1764,-1.1719 -1.7646,-2.6367 -0.5882,-1.4649 -0.5882,-3.2227 0,-1.7578 0.5882,-3.2227 0.5882,-1.4649 1.7646,-2.6367 1.1764,-1.1718 2.6469,-1.7578 1.4705,-0.586 3.23511,-0.586 z"
         id="path7526"
         style="font-size:300.579px;font-family:cptools;-inkscape-font-specification:cptools;fill:#a72ba7;stroke-width:3.13103"
         inkscape:label="whiteboard" />
      <path
         style="fill:#ffffff;fill-opacity:1;stroke:none;stroke-width:35.4331;stroke-dasharray:35.4331, 70.8663;filter:url(#filter1738)"
         d="m 634.55717,1327.749 h 160.78054 l 68.32982,68.3298 v 199.9096 H 634.66276 Z"
         id="path2057" />
      <path
         d="m 638.16067,1315.3514 q -6.7643,0 -11.46991,4.6874 -4.4115,4.3945 -4.4115,11.1328 v 260.1566 q 0,6.7383 4.4115,11.1328 4.70561,4.6875 11.46991,4.6875 h 219.39892 q 6.4702,0 11.17581,-4.6875 4.7056,-4.3945 4.7056,-11.1328 V 1403.828 q 0,-6.4453 -3.5292,-14.0625 -3.2351,-7.9102 -7.6466,-12.5977 l -51.17348,-50.6836 q -4.41151,-4.3945 -12.35222,-7.6172 -7.94071,-3.5156 -14.41091,-3.5156 z m 4.99971,20.8007 h 125.58088 v 67.6759 q 0,6.7383 4.41151,11.4257 4.7056,4.3946 11.17582,4.3946 h 67.93719 v 166.6994 h -209.1054 z m 146.46201,1.4649 q 2.0587,0.5859 3.82331,1.7578 2.05869,0.8789 2.941,1.7578 l 51.17348,50.9766 q 0.88229,0.8789 1.76459,2.9297 0.8823,1.7578 1.76461,3.8086 h -61.46699 z m -127.63958,110.1563 v 26.3672 h 47.64427 v -26.3672 z m 62.05519,0 v 26.3672 h 47.93837 v -26.3672 z m 62.34928,0 v 26.3672 h 47.64427 v -26.3672 z m -124.40447,39.5508 v 26.6603 h 47.64427 v -26.6603 z m 124.40447,0 v 26.6603 h 47.64427 v -26.6603 z m -124.40447,39.8439 v 26.3672 h 47.64427 v -26.3672 z"
         id="path7523"
         style="font-size:300.579px;font-family:cptools;-inkscape-font-specification:cptools;fill:#88cc44;stroke-width:3.13103"
         inkscape:label="kanban" />
      <path
         style="fill:#ffffff;fill-opacity:1;stroke:none;stroke-width:35.4331;stroke-dasharray:35.4331, 70.8663;filter:url(#filter1726)"
         d="m 213.77088,1352.2977 h 160.78054 l 68.32982,68.3298 v 199.9096 H 213.87647 Z"
         id="path2051" />
      <path
         d="m 443.51517,1402.1677 -51.17347,-50.6836 q -4.4115,-4.3946 -12.35221,-7.6173 -7.94071,-3.5156 -14.41093,-3.5156 h -146.1679 q -6.7643,0 -11.46991,4.6875 -4.41151,4.3945 -4.41151,11.1328 v 260.1566 q 0,6.7383 4.41151,11.1328 4.70561,4.6874 11.46991,4.6874 h 219.39891 q 6.47021,0 11.17582,-4.6874 4.7056,-4.3945 4.7056,-11.1328 v -187.5002 q 0,-6.4454 -3.5292,-14.0625 -3.2351,-7.9103 -7.64662,-12.5977 z m -72.64279,-39.5508 q 2.0587,0.5858 3.8233,1.7578 2.0587,0.8789 2.94101,1.7578 l 51.17346,50.9766 q 0.88231,0.8789 1.76461,2.9297 0.8823,1.7578 1.7646,3.8086 h -61.46698 z m 62.64338,248.7307 H 224.41036 V 1361.152 h 125.58088 v 67.6759 q 0,6.7383 4.41151,11.4257 4.70561,4.3945 11.17581,4.3945 h 67.9372 z M 266.46672,1470.7224 v 10.254 q 0,2.3437 1.47051,3.8085 1.4705,1.4649 3.5292,1.4649 H 386.4597 q 2.3528,0 3.82331,-1.4649 1.4705,-1.4648 1.4705,-3.8085 v -10.254 q 0,-2.3437 -1.4705,-3.8086 -1.47051,-1.4648 -3.82331,-1.4648 H 271.46643 q -2.0587,0 -3.5292,1.4648 -1.47051,1.4649 -1.47051,3.8086 z m 119.99298,36.3282 H 271.46643 q -2.0587,0 -3.5292,1.4648 -1.47051,1.4649 -1.47051,3.8086 v 10.2539 q 0,2.3438 1.47051,3.8087 1.4705,1.4648 3.5292,1.4648 H 386.4597 q 2.3528,0 3.82331,-1.4648 1.4705,-1.4649 1.4705,-3.8087 v -10.2539 q 0,-2.3437 -1.4705,-3.8086 -1.47051,-1.4648 -3.82331,-1.4648 z m 0,41.6016 H 271.46643 q -2.0587,0 -3.5292,1.7578 -1.47051,1.4649 -1.47051,3.5156 v 10.5469 q 0,2.0508 1.47051,3.5156 1.4705,1.4649 3.5292,1.4649 H 386.4597 q 2.3528,0 3.82331,-1.4649 1.4705,-1.4648 1.4705,-3.5156 v -10.5469 q 0,-2.0507 -1.4705,-3.5156 -1.47051,-1.7578 -3.82331,-1.7578 z"
         id="path7529"
         style="font-size:300.579px;font-family:cptools;-inkscape-font-specification:cptools;fill:#256ad5;stroke-width:3.13103"
         inkscape:label="rtf" />
      <path
         style="fill:#ffffff;fill-opacity:1;stroke:none;stroke-width:35.4331;stroke-dasharray:35.4331, 70.8663;filter:url(#filter1714)"
         d="m 786.67042,1523.2877 h 160.78054 l 68.32984,68.3298 v 199.9096 H 786.77601 Z"
         id="path2060" />
      <path
         d="m 1018.4833,1570.0668 -52.41267,-52.2321 c -6.2156,-6.1942 -18.64682,-11.384 -27.55025,-11.384 H 788.00201 c -8.90344,0 -16.12698,7.1987 -16.12698,16.0715 v 267.8572 c 0,8.8728 7.22354,16.0715 16.12698,16.0715 h 225.77759 c 8.9034,0 16.127,-7.1987 16.127,-16.0715 v -192.8572 c 0,-8.8728 -5.2077,-21.2612 -11.4233,-27.4554 z m -74.58725,-40.8482 c 2.85581,1.0045 5.71163,2.5112 6.88755,3.6831 l 52.5806,52.3995 c 1.1759,1.1719 2.6879,4.0179 3.6958,6.8639 h -63.16395 z m 64.50785,255.8037 H 793.37766 v -257.143 h 129.01575 v 69.6429 c 0,8.8728 7.22355,16.0715 16.12697,16.0715 h 69.88352 z m -164.46147,-39.1741 h 11.42327 l 32.58992,-47.3773 -31.74997,-45.5357 h -11.42327 v -17.913 h 48.71688 v 17.913 h -12.76718 l 17.80687,26.6183 c 1.3439,1.5067 2.18385,2.6786 2.85581,3.8505 0.33598,0.5022 0.67195,1.0044 0.83994,1.6741 h 0.33598 c 0,0.1674 1.51191,-2.3438 3.52778,-5.5246 l 17.30289,-26.6183 h -12.4312 v -17.913 h 46.869 v 17.913 h -11.25528 l -32.7579,47.2098 32.25393,45.7032 h 11.42327 v 17.7455 h -48.88488 v -17.7455 h 12.76719 l -17.97485,-26.9532 c -1.17593,-1.6741 -2.18386,-2.6786 -2.85582,-4.0179 -0.33598,-0.5022 -0.67196,-1.0044 -0.83995,-1.6741 h -0.33598 c -0.50396,0 -1.51189,2.5112 -3.52777,5.692 l -17.30289,26.9532 h 12.5992 v 17.7455 h -47.20499 z"
         id="path7520"
         style="font-size:300.518px;font-family:FontAwesome;-inkscape-font-specification:FontAwesome;fill:#40865c;stroke-width:3.13039"
         inkscape:label="sheet" />
      <path
         style="fill:#ffffff;fill-opacity:1;stroke:none;stroke-width:35.4331;stroke-dasharray:35.4331, 70.8663;filter:url(#filter1702)"
         d="M 346.03156,1527.4229 H 506.8121 l 68.32982,68.3298 v 199.9096 H 346.13715 Z"
         id="path2048" />
      <path
         d="m 574.7652,1577.1676 -51.17348,-50.6836 q -4.4115,-4.3945 -12.35221,-7.6172 -7.94071,-3.5156 -14.41092,-3.5156 H 350.66068 q -6.76431,0 -11.46991,4.6874 -4.41151,4.3946 -4.41151,11.1328 v 260.1566 q 0,6.7383 4.41151,11.1328 4.7056,4.6876 11.46991,4.6876 H 570.0596 q 6.4702,0 11.17581,-4.6876 4.7056,-4.3945 4.7056,-11.1328 v -187.5002 q 0,-6.4453 -3.5292,-14.0625 -3.2351,-7.9101 -7.64661,-12.5977 z m -72.6428,-39.5508 q 2.0587,0.586 3.8233,1.7578 2.0587,0.8789 2.94101,1.7578 l 51.17347,50.9767 q 0.8823,0.8789 1.7646,2.9296 0.8823,1.7578 1.7646,3.8086 H 502.1224 Z m 62.64339,248.7307 h -209.1054 v -250.1956 h 125.58088 v 67.6759 q 0,6.7383 4.4115,11.4258 4.70561,4.3946 11.17582,4.3946 h 67.9372 z m -151.46172,-145.8986 -37.05665,48.9259 q -0.8823,1.4648 -0.8823,3.2226 0,1.7578 0.8823,2.9297 l 37.05665,48.9258 q 1.1764,1.7578 3.23511,2.0509 2.3528,0.2929 4.1174,-0.879 l 8.23482,-6.1523 q 1.7646,-1.4649 2.05869,-3.5157 0.29411,-2.3437 -0.8823,-3.8086 l -29.99823,-39.5508 29.99823,-39.5508 q 1.17641,-1.7578 0.8823,-3.8086 -0.29409,-2.3438 -2.05869,-3.5156 l -8.23482,-6.1524 q -1.7646,-1.4648 -4.1174,-1.1718 -2.05871,0.2929 -3.23511,2.0507 z m 130.87469,48.9259 -36.76256,-48.9259 q -1.4705,-1.7578 -3.5292,-2.0507 -2.05871,-0.293 -3.8233,1.1718 l -8.23482,6.1524 q -1.7646,1.1718 -2.0587,3.5156 -0.2941,2.0508 0.88231,3.8086 l 29.70414,39.5508 -29.70414,39.5508 q -1.17641,1.7579 -0.88231,3.8086 0.2941,2.0508 2.0587,3.5157 l 8.23482,6.1523 q 1.76459,1.1719 3.8233,0.879 2.0587,-0.2931 3.5292,-2.0509 l 36.76256,-48.9258 q 1.17639,-1.1719 1.17639,-2.9297 0,-1.7578 -1.17639,-3.2226 z m -101.17054,75.0001 10.29351,1.7578 q 2.0587,0.2929 3.82331,-0.8789 1.76459,-1.172 2.3528,-3.5156 l 22.35163,-135.0588 q 0.2941,-2.0507 -0.8823,-3.8087 -1.1764,-2.0507 -3.23511,-2.3436 l -10.29352,-1.4649 q -2.05869,-0.586 -4.11739,0.586 -1.76461,1.1718 -2.05871,3.5156 l -22.35163,135.3517 q -0.5882,2.0507 0.5882,3.8085 1.1764,1.7578 3.52921,2.0509 z"
         id="path7532"
         style="font-size:300.579px;font-family:cptools;-inkscape-font-specification:cptools;fill:#eaa000;stroke-width:3.13103"
         inkscape:label="icon code" />
      <path
         style="fill:#ffffff;fill-opacity:1;stroke:none;stroke-width:35.4331;stroke-dasharray:35.4331, 70.8663;filter:url(#filter1690)"
         d="m 498.92597,1683.9289 h 160.78054 l 68.32982,68.3298 v 199.9096 H 499.03156 Z"
         id="path1059" />
      <path
         d="m 503.78566,1671.6013 q -6.76431,0 -11.46991,4.6876 -4.41151,4.3945 -4.41151,11.1328 v 260.1565 q 0,6.7383 4.41151,11.1328 4.7056,4.6876 11.46991,4.6876 h 219.39892 q 6.4702,0 11.17581,-4.6876 4.7056,-4.3945 4.7056,-11.1328 v -187.5001 q 0,-6.4454 -3.5292,-14.0626 -3.2351,-7.9101 -7.64661,-12.5977 l -51.17348,-50.6836 q -4.4115,-4.3946 -12.35221,-7.6172 -7.94071,-3.5157 -14.41092,-3.5157 z m 4.99971,20.8009 h 125.58088 v 67.6759 q 0,6.7382 4.4115,11.4257 4.70561,4.3945 11.17582,4.3945 h 67.9372 v 166.6995 h -209.1054 z m 146.46201,1.4648 q 2.0587,0.586 3.8233,1.7578 2.0587,0.8789 2.941,1.7578 l 51.17348,50.9767 q 0.8823,0.8789 1.7646,2.9296 0.8823,1.7578 1.7646,3.8087 h -61.46698 z m -3.23511,113.3791 v 102.5391 h 47.64427 v -102.5391 z m -62.34929,28.7109 v 73.8282 h 47.93838 v -73.8282 z m -62.05518,31.6407 v 42.1875 h 47.64426 v -42.1875 z"
         id="path7535"
         style="font-size:300.579px;font-family:cptools;-inkscape-font-specification:cptools;fill:#2c9e98;stroke-width:3.13103"
         inkscape:label="icon form" />
    </g>
  </g>
</svg>
