<?xml version="1.0" encoding="UTF-8"?>
<!-- Created with Inkscape (http://www.inkscape.org/) -->
<svg width="24" height="24" version="1.1" viewBox="0 0 6.35 6.35" xmlns="http://www.w3.org/2000/svg">
  <path d="m4.5014 5.466q-0.60634 0.35484-1.3264 0.35484t-1.3298-0.35484q-0.60634-0.35484-0.96118-0.96118-0.35484-0.60978-0.35484-1.3298t0.35484-1.3264q0.35484-0.60978 0.96118-0.96463 0.60978-0.35484 1.3298-0.35484t1.3264 0.35484q0.60978 0.35484 0.96462 0.96463 0.35484 0.60634 0.35484 1.3264t-0.35484 1.3298q-0.35484 0.60634-0.96462 0.96118zm-1.5365-1.7122h0.48576q0.34451 0 0.58567-0.23427 0.24116-0.23771 0.24116-0.57188t-0.24116-0.56844q-0.24116-0.23771-0.58567-0.23771h-0.69935q-0.19982 0-0.34106 0.1378-0.1378 0.13436-0.1378 0.32728v1.8087z" stroke-linecap="round" stroke-linejoin="round" stroke-width=".7717" aria-label=""/>
</svg>
