<?xml version="1.0" encoding="UTF-8"?>
<!-- Created with Inkscape (http://www.inkscape.org/) -->
<svg width="24" height="24" version="1.1" viewBox="0 0 6.35 6.35" xmlns="http://www.w3.org/2000/svg">
  <path d="m5.7597 3.7507q-0.063308 0.31302-0.48185 0.59791-0.41854 0.28137-0.95314 0.34468-0.73508 0.087928-1.1501 0.070343-0.2884-0.014068-0.58033-0.052757-0.2884-0.038688-0.43261-0.070343l-0.14772-0.031654q0 0.094963 0.010551 0.17937 0.021103 0.15475 0.07386 0.27434 0.056274 0.11607 0.15124 0.18641 0.094963 0.07386 0.18641 0.11958 0.091445 0.045723 0.23565 0.070343 0.1442 0.02462 0.2462 0.031654 0.102 0.00703 0.26378 0.014068 0.23565 0.00703 0.48536-0.02462 0.24972-0.031654 0.37985-0.066826l0.13365-0.038689 0.021103 0.47833q-0.042206 0.021103-0.1231 0.052757-0.077377 0.035171-0.34468 0.09848-0.2673 0.066825-0.55922 0.080894-0.62957 0.035172-1.333-0.14772-0.23916-0.063308-0.43261-0.18289-0.19344-0.11958-0.33061-0.27434-0.13717-0.15475-0.24268-0.36226-0.102-0.20751-0.16882-0.41854-0.063308-0.21103-0.10551-0.47481-0.042206-0.26378-0.059791-0.50295-0.017586-0.23916-0.02462-0.52405-0.003517-0.1231-0.003517-0.99535 0-0.25675 0.045723-0.48536 0.045723-0.22861 0.11607-0.38688 0.07386-0.15827 0.16179-0.29192 0.087928-0.13365 0.17586-0.21455 0.091445-0.084411 0.16179-0.14069 0.07386-0.059791 0.11958-0.080894l0.045723-0.02462q0.58033-0.2673 1.8676-0.27785h0.017586q1.2873 0.010551 1.8676 0.27785 0.035171 0.014068 0.087928 0.04924 0.056274 0.031654 0.19696 0.16179 0.1442 0.13013 0.24972 0.29896 0.10903 0.16531 0.19696 0.46426 0.091445 0.29896 0.091445 0.65067 0.010551 0.92501-0.11606 1.5686zm-0.85466-1.4702q0-0.47833-0.23916-0.74211-0.24972-0.27785-0.64364-0.27785-0.46426 0-0.69639 0.35523l-0.15124 0.25323-0.15124-0.25323q-0.23213-0.35523-0.69639-0.35523-0.39392 0-0.64364 0.27785-0.23916 0.27785-0.23916 0.74211v1.5194h0.60143v-1.4772q0-0.46778 0.39392-0.46778 0.43612 0 0.43612 0.55922v0.80542h0.59791v-0.80542q0-0.55922 0.43612-0.55922 0.39392 0 0.39392 0.46778v1.4772h0.60143z" stroke-linecap="round" stroke-linejoin="round" stroke-width=".78784" aria-label=""/>
</svg>
