<?xml version="1.0" encoding="UTF-8"?>
<!-- Created with Inkscape (http://www.inkscape.org/) -->
<svg width="24" height="24" version="1.1" viewBox="0 0 6.35 6.35" xmlns="http://www.w3.org/2000/svg">
  <path d="m0.66697 0.64974v5.0505h0.36518v0.12058h-0.50298v-5.2917h0.50298v0.12058zm1.5537 1.602v0.25494h0.00689q0.11024-0.15158 0.24805-0.22738 0.1378-0.079237 0.33073-0.079237 0.17225 0 0.32728 0.068902 0.14469 0.065457 0.22393 0.2446 0.086127-0.13091 0.22738-0.22049 0.14469-0.093018 0.34106-0.093018 0.14469 0 0.27905 0.037896 0.12402 0.034451 0.21704 0.11713 0.089572 0.079237 0.14125 0.20671 0.051676 0.12747 0.051676 0.3135v1.2644h-0.51676v-1.0714q0-0.068902-0.00689-0.17914-0.00345-0.072347-0.041341-0.14469-0.031006-0.062012-0.096463-0.099908-0.058567-0.034451-0.17225-0.034451-0.11024 0-0.1757 0.041341-0.072347 0.044786-0.1068 0.11024-0.044786 0.079237-0.051676 0.15158-0.01378 0.11713-0.01378 0.1757v1.0508h-0.51676v-1.0576q0-0.11369-0.00345-0.16881-0.00345-0.079237-0.031006-0.15158-0.024116-0.065457-0.093018-0.11024-0.062012-0.041341-0.18948-0.041341-0.027561 0-0.096463 0.017225-0.058567 0.01378-0.11713 0.062012-0.055121 0.044786-0.096463 0.13091-0.037896 0.079237-0.037896 0.22393v1.0955h-0.5202v-1.8879zm3.4623 3.4485v-5.0505h-0.36518v-0.12058h0.50298v5.2917h-0.50298v-0.12058z" stroke-linecap="round" stroke-linejoin="round" stroke-width=".7717" aria-label=""/>
</svg>
